<svg xmlns="http://www.w3.org/2000/svg" width="1200" height="420" viewBox="0 0 1200 420" role="img" aria-labelledby="title desc">
  <title id="title">Christian Juresh</title>
  <desc id="desc">Software engineer in London working across backend, platform, and frontend.</desc>

  <defs>
    <linearGradient id="paper" x1="0" y1="0" x2="1" y2="1">
      <stop offset="0" stop-color="#fbf8f1"/>
      <stop offset="1" stop-color="#f1eadf"/>
    </linearGradient>
    <linearGradient id="sunset" x1="0" y1="0" x2="1" y2="1">
      <stop offset="0" stop-color="#d96c43"/>
      <stop offset="1" stop-color="#9f382f"/>
    </linearGradient>
    <clipPath id="frame">
      <rect x="24" y="24" width="1152" height="372" rx="3"/>
    </clipPath>
  </defs>

  <rect width="1200" height="420" fill="url(#paper)"/>
  <rect x="24.5" y="24.5" width="1151" height="371" rx="3" fill="none" stroke="#cfc5b5"/>

  <g clip-path="url(#frame)">
    <circle cx="1038" cy="108" r="225" fill="#274c43" opacity="0.06"/>
    <circle cx="1012" cy="218" r="150" fill="none" stroke="#274c43" stroke-width="1.5"/>
    <circle cx="1012" cy="218" r="112" fill="none" stroke="url(#sunset)" stroke-width="26" stroke-dasharray="420 285" transform="rotate(-42 1012 218)"/>
    <circle cx="1012" cy="218" r="63" fill="#1d2623"/>
    <path d="M824 340C913 285 982 287 1090 329C1144 350 1185 354 1220 344" fill="none" stroke="#d96c43" stroke-width="2" opacity="0.72"/>
    <path d="M850 71L1142 363M1142 71L850 363" stroke="#274c43" stroke-width="1" opacity="0.12"/>
    <text x="1012" y="236" text-anchor="middle" font-family="Georgia, 'Times New Roman', serif" font-size="58" fill="#f8f3e9">CJ</text>
  </g>

  <text x="78" y="82" font-family="Arial, Helvetica, sans-serif" font-size="13" letter-spacing="4.2" fill="#756d62">SOFTWARE ENGINEER · LONDON</text>
  <line x1="78" y1="106" x2="674" y2="106" stroke="#cfc5b5"/>

  <text x="74" y="205" font-family="Georgia, 'Times New Roman', serif" font-size="74" fill="#1d2623">Christian</text>
  <text x="74" y="285" font-family="Georgia, 'Times New Roman', serif" font-size="74" font-style="italic" fill="#1d2623">Juresh</text>

  <circle cx="82" cy="341" r="4" fill="#d96c43"/>
  <text x="101" y="346" font-family="Arial, Helvetica, sans-serif" font-size="14" letter-spacing="2.6" fill="#756d62">BACKEND / PLATFORM / FRONTEND</text>
</svg>
